<svg width="20" height="18" viewBox="0 0 20 18" fill="none" xmlns="http://www.w3.org/2000/svg">
<path d="M0.302016 3.37C-0.557985 1.87 0.524015 0 2.25302 0H17.743C19.472 0 20.555 1.87 19.694 3.37L11.95 16.871C11.085 18.378 8.91001 18.378 8.04601 16.871L0.302016 3.37ZM2.25302 1.5C2.12162 1.50012 1.99255 1.53475 1.87875 1.60044C1.76495 1.66613 1.6704 1.76057 1.60458 1.87429C1.53875 1.98802 1.50396 2.11704 1.50369 2.24844C1.50341 2.37984 1.53767 2.509 1.60302 2.623L9.34702 16.125C9.41271 16.2395 9.50745 16.3346 9.62166 16.4007C9.73588 16.4669 9.86553 16.5017 9.99752 16.5017C10.1295 16.5017 10.2591 16.4669 10.3734 16.4007C10.4876 16.3346 10.5823 16.2395 10.648 16.125L18.393 2.623C18.4584 2.509 18.4926 2.37984 18.4923 2.24844C18.4921 2.11704 18.4573 1.98802 18.3915 1.87429C18.3256 1.76057 18.2311 1.66613 18.1173 1.60044C18.0035 1.53475 17.8744 1.50012 17.743 1.5H2.25302Z" fill="black"/>
</svg>
