<svg width="32" height="32" viewBox="0 0 32 32" fill="none" xmlns="http://www.w3.org/2000/svg">
<path d="M23.5 30H8.50002C7.63985 30.0107 6.78611 29.8505 5.98832 29.5287C5.19053 29.2069 4.46456 28.7299 3.85251 28.1254C3.24047 27.5209 2.75452 26.8009 2.42286 26.0072C2.09119 25.2134 1.92041 24.3617 1.92041 23.5015C1.92041 22.6413 2.09119 21.7896 2.42286 20.9958C2.75452 20.2021 3.24047 19.4821 3.85251 18.8776C4.46456 18.2731 5.19053 17.7961 5.98832 17.4743C6.78611 17.1525 7.63985 16.9923 8.50002 17.003H23.5C24.3602 16.9923 25.2139 17.1525 26.0117 17.4743C26.8095 17.7961 27.5355 18.2731 28.1475 18.8776C28.7596 19.4821 29.2455 20.2021 29.5772 20.9958C29.9089 21.7896 30.0796 22.6413 30.0796 23.5015C30.0796 24.3617 29.9089 25.2134 29.5772 26.0072C29.2455 26.8009 28.7596 27.5209 28.1475 28.1254C27.5355 28.7299 26.8095 29.2069 26.0117 29.5287C25.2139 29.8505 24.3602 30.0107 23.5 30Z" fill="#321B41"/>
<path d="M6.80903 8.44C6.71303 5.912 7.85703 3.992 10.354 3.992H21.672C23.228 3.992 25.327 5.165 25.177 8.353C25.057 10.904 24.605 19.041 24.395 22.791H7.61003C7.36003 18.771 6.88003 10.341 6.80803 8.439" fill="#533566"/>
<path d="M21.717 21.742H10.282C8.88202 21.742 7.86403 20.802 7.42603 19.472V23.07C7.42603 24.565 8.76903 25.747 10.276 25.747H21.722C23.23 25.747 24.573 24.555 24.573 23.07V19.533C24.135 20.863 23.117 21.742 21.717 21.742Z" fill="#F8312F"/>
</svg>
