<svg width="20" height="20" viewBox="0 0 20 20" fill="none" xmlns="http://www.w3.org/2000/svg">
<path d="M17.75 8.00001C17.75 7.8011 17.671 7.61033 17.5304 7.46968C17.3897 7.32903 17.1989 7.25001 17 7.25001C16.8011 7.25001 16.6104 7.32903 16.4697 7.46968C16.329 7.61033 16.25 7.8011 16.25 8.00001H17.75ZM3.75003 8.00001C3.75003 7.8011 3.67101 7.61033 3.53036 7.46968C3.38971 7.32903 3.19894 7.25001 3.00003 7.25001C2.80112 7.25001 2.61035 7.32903 2.4697 7.46968C2.32905 7.61033 2.25003 7.8011 2.25003 8.00001H3.75003ZM18.47 10.53C18.5387 10.6037 18.6215 10.6628 18.7135 10.7038C18.8055 10.7448 18.9048 10.7668 19.0055 10.7686C19.1062 10.7704 19.2062 10.7519 19.2996 10.7141C19.393 10.6764 19.4779 10.6203 19.5491 10.549C19.6203 10.4778 19.6764 10.393 19.7142 10.2996C19.7519 10.2062 19.7704 10.1062 19.7686 10.0055C19.7668 9.90479 19.7448 9.80547 19.7038 9.71347C19.6628 9.62147 19.6037 9.53867 19.53 9.47001L18.47 10.53ZM10 1.00001L10.53 0.470011C10.3894 0.329561 10.1988 0.250671 10 0.250671C9.80128 0.250671 9.61066 0.329561 9.47003 0.470011L10 1.00001ZM0.470032 9.47001C0.396345 9.53867 0.337243 9.62147 0.296251 9.71347C0.255259 9.80547 0.233217 9.90479 0.23144 10.0055C0.229663 10.1062 0.248188 10.2062 0.285909 10.2996C0.32363 10.393 0.379774 10.4778 0.450993 10.549C0.522212 10.6203 0.607046 10.6764 0.700434 10.7141C0.793822 10.7519 0.893851 10.7704 0.994554 10.7686C1.09526 10.7668 1.19457 10.7448 1.28657 10.7038C1.37857 10.6628 1.46137 10.6037 1.53003 10.53L0.470032 9.47001ZM5.00003 19.75H15V18.25H5.00003V19.75ZM17.75 17V8.00001H16.25V17H17.75ZM3.75003 17V8.00001H2.25003V17H3.75003ZM19.53 9.47001L10.53 0.470011L9.47003 1.53001L18.47 10.53L19.53 9.47001ZM9.47003 0.470011L0.470032 9.47001L1.53003 10.53L10.53 1.53001L9.47003 0.470011ZM15 19.75C15.7294 19.75 16.4289 19.4603 16.9446 18.9446C17.4603 18.4288 17.75 17.7294 17.75 17H16.25C16.25 17.69 15.69 18.25 15 18.25V19.75ZM5.00003 18.25C4.31003 18.25 3.75003 17.69 3.75003 17H2.25003C2.25003 17.7294 2.53976 18.4288 3.05549 18.9446C3.57121 19.4603 4.27069 19.75 5.00003 19.75V18.25Z" fill="black"/>
</svg>
