<svg width="30" height="30" viewBox="0 0 30 30" fill="none" xmlns="http://www.w3.org/2000/svg">
<path d="M15 25.2C9.36005 25.2 4.80005 20.64 4.80005 15C4.80005 9.35999 9.36005 4.79999 15 4.79999C20.64 4.79999 25.2 9.35999 25.2 15C25.2 20.64 20.64 25.2 15 25.2ZM15 5.99999C10.02 5.99999 6.00005 10.02 6.00005 15C6.00005 19.98 10.02 24 15 24C19.98 24 24 19.98 24 15C24 10.02 19.98 5.99999 15 5.99999Z" fill="black"/>
<path d="M9.59998 14.4H20.4V15.6H9.59998V14.4Z" fill="black"/>
<path d="M14.4 9.59998H15.6V20.4H14.4V9.59998Z" fill="black"/>
</svg>
