<svg width="54" height="54" viewBox="0 0 54 54" fill="none" xmlns="http://www.w3.org/2000/svg">
<g clip-path="url(#clip0_92_21)">
<path d="M33.0907 12.681L45.819 25.4093C46.2408 25.8312 46.4778 26.4034 46.4778 27C46.4778 27.5967 46.2408 28.1689 45.819 28.5908L33.0907 41.319C32.6664 41.7289 32.098 41.9557 31.5081 41.9506C30.9182 41.9454 30.3538 41.7088 29.9367 41.2916C29.5195 40.8745 29.2829 40.3101 29.2777 39.7202C29.2726 39.1302 29.4994 38.5619 29.9093 38.1375L38.7967 29.25H9C8.40326 29.25 7.83097 29.013 7.40901 28.591C6.98705 28.1691 6.75 27.5968 6.75 27C6.75 26.4033 6.98705 25.831 7.40901 25.409C7.83097 24.9871 8.40326 24.75 9 24.75H38.7967L29.9093 15.8625C29.6944 15.655 29.5229 15.4067 29.405 15.1322C29.2871 14.8577 29.225 14.5624 29.2224 14.2637C29.2198 13.9649 29.2768 13.6687 29.3899 13.3921C29.503 13.1156 29.6701 12.8644 29.8814 12.6532C30.0926 12.4419 30.3438 12.2748 30.6204 12.1617C30.8969 12.0486 31.1931 11.9916 31.4919 11.9942C31.7907 11.9968 32.0859 12.0589 32.3604 12.1768C32.6349 12.2947 32.8832 12.4661 33.0907 12.681Z" fill="black"/>
</g>
<defs>
<clipPath id="clip0_92_21">
<rect width="54" height="54" fill="white"/>
</clipPath>
</defs>
</svg>
